<?xml version="1.0" encoding="UTF-8"?>
<!DOCTYPE svg PUBLIC "-//W3C//DTD SVG 1.1//EN" "http://www.w3.org/Graphics/SVG/1.1/DTD/svg11.dtd">
<svg xmlns="http://www.w3.org/2000/svg" version="1.1" width="1024px" height="1024px" style="shape-rendering:geometricPrecision; text-rendering:geometricPrecision; image-rendering:optimizeQuality; fill-rule:evenodd; clip-rule:evenodd" xmlns:xlink="http://www.w3.org/1999/xlink">
<g><path style="opacity:0.996" fill="#f32735" d="M 478.5,-0.5 C 500.167,-0.5 521.833,-0.5 543.5,-0.5C 671.483,9.11989 781.15,58.4532 872.5,147.5C 855.527,165.14 838.194,182.473 820.5,199.5C 783.306,176.325 743.473,158.991 701,147.5C 700.228,147.645 699.561,147.978 699,148.5C 655.362,212.304 611.529,275.971 567.5,339.5C 596.278,346.213 623.612,356.88 649.5,371.5C 646.833,374.5 644.167,377.5 641.5,380.5C 546.271,329.216 455.271,335.716 368.5,400C 293.239,463.757 263.406,544.59 279,642.5C 284.719,668.83 293.886,693.83 306.5,717.5C 304.5,720.167 302.167,722.5 299.5,724.5C 295.695,717.562 291.861,710.562 288,703.5C 286.6,702.884 285.1,702.551 283.5,702.5C 251.789,709.678 220.122,717.011 188.5,724.5C 195.829,745.825 205.329,766.159 217,785.5C 232.492,776.504 248.325,768.171 264.5,760.5C 227.256,798.245 189.756,835.911 152,873.5C 152.058,875.435 152.891,877.102 154.5,878.5C 86.9078,813.392 40.7411,735.059 16,643.5C 7.66536,610.826 2.16536,577.826 -0.5,544.5C -0.5,522.833 -0.5,501.167 -0.5,479.5C 10.7423,336.517 69.7423,217.684 176.5,123C 263.678,49.5343 364.345,8.36768 478.5,-0.5 Z"/></g>
<g><path style="opacity:1" fill="#fffefe" d="M 571.5,133.5 C 595.894,133.205 620.227,134.205 644.5,136.5C 609.514,203.301 573.848,269.801 537.5,336C 505.54,333.566 474.373,337.4 444,347.5C 443.5,347.167 443,346.833 442.5,346.5C 461.231,279.357 479.398,212.023 497,144.5C 521.58,138.409 546.413,134.742 571.5,133.5 Z"/></g>
<g><path style="opacity:1" fill="#fefefe" d="M 820.5,199.5 C 826.767,203.978 833.1,208.478 839.5,213C 776.981,265.429 714.648,318.096 652.5,371C 651.552,371.483 650.552,371.649 649.5,371.5C 623.612,356.88 596.278,346.213 567.5,339.5C 611.529,275.971 655.362,212.304 699,148.5C 699.561,147.978 700.228,147.645 701,147.5C 743.473,158.991 783.306,176.325 820.5,199.5 Z"/></g>
<g><path style="opacity:1" fill="#9e1020" d="M 872.5,147.5 C 963.081,239.025 1013.41,349.358 1023.5,478.5C 1023.5,500.167 1023.5,521.833 1023.5,543.5C 1009.24,707.91 935.573,838.077 802.5,934C 724.569,986.811 638.569,1016.64 544.5,1023.5C 522.833,1023.5 501.167,1023.5 479.5,1023.5C 364.925,1014.86 263.925,973.689 176.5,900C 168.662,893.329 161.329,886.162 154.5,878.5C 152.891,877.102 152.058,875.435 152,873.5C 189.756,835.911 227.256,798.245 264.5,760.5C 278.03,752.481 291.863,744.814 306,737.5C 304.42,733.007 302.254,728.674 299.5,724.5C 302.167,722.5 304.5,720.167 306.5,717.5C 319.684,738.784 335.517,758.118 354,775.5C 360.092,767.419 367.925,761.586 377.5,758C 386.217,754.571 395.217,752.237 404.5,751C 423.809,749.49 443.142,749.157 462.5,750C 483.272,751.42 503.939,753.42 524.5,756C 506.599,719.698 489.099,683.198 472,646.5C 471.107,645.919 470.107,645.585 469,645.5C 460.768,647.721 452.601,649.054 444.5,649.5C 441.986,636.43 439.153,623.43 436,610.5C 435.111,606.848 434.778,603.182 435,599.5C 521.059,539.776 607.392,480.443 694,421.5C 693.805,419.255 692.638,417.422 690.5,416C 675.104,402.755 658.77,390.922 641.5,380.5C 644.167,377.5 646.833,374.5 649.5,371.5C 650.552,371.649 651.552,371.483 652.5,371C 714.648,318.096 776.981,265.429 839.5,213C 833.1,208.478 826.767,203.978 820.5,199.5C 838.194,182.473 855.527,165.14 872.5,147.5 Z"/></g>
<g><path style="opacity:1" fill="#fffefe" d="M 453.5,155.5 C 454.5,155.5 455.5,155.5 456.5,155.5C 445.288,221.482 434.121,287.482 423,353.5C 392.689,367.492 365.356,385.826 341,408.5C 335.636,347.496 330.636,286.496 326,225.5C 364.564,195.295 407.064,171.962 453.5,155.5 Z"/></g>
<g><path style="opacity:1" fill="#fffdfd" d="M 291.5,255.5 C 293.067,256.681 293.901,258.347 294,260.5C 305.835,313.174 317.669,365.841 329.5,418.5C 329.281,419.938 328.781,421.271 328,422.5C 312.018,441.115 298.518,461.449 287.5,483.5C 264.442,438.551 241.775,393.384 219.5,348C 239.881,314.44 263.881,283.607 291.5,255.5 Z"/></g>
<g><path style="opacity:1" fill="#fefefe" d="M 641.5,380.5 C 658.77,390.922 675.104,402.755 690.5,416C 692.638,417.422 693.805,419.255 694,421.5C 607.392,480.443 521.059,539.776 435,599.5C 434.778,603.182 435.111,606.848 436,610.5C 439.153,623.43 441.986,636.43 444.5,649.5C 452.601,649.054 460.768,647.721 469,645.5C 470.107,645.585 471.107,645.919 472,646.5C 489.099,683.198 506.599,719.698 524.5,756C 503.939,753.42 483.272,751.42 462.5,750C 443.142,749.157 423.809,749.49 404.5,751C 395.217,752.237 386.217,754.571 377.5,758C 367.925,761.586 360.092,767.419 354,775.5C 335.517,758.118 319.684,738.784 306.5,717.5C 293.886,693.83 284.719,668.83 279,642.5C 263.406,544.59 293.239,463.757 368.5,400C 455.271,335.716 546.271,329.216 641.5,380.5 Z"/></g>
<g><path style="opacity:1" fill="#fffdfd" d="M 198.5,388.5 C 200.129,389.625 201.629,390.959 203,392.5C 228.423,427.012 254.09,461.345 280,495.5C 280.667,497.833 280.667,500.167 280,502.5C 274.169,518.826 269.669,535.492 266.5,552.5C 234.851,524.686 203.351,496.686 172,468.5C 177.66,440.831 186.494,414.164 198.5,388.5 Z"/></g>
<g><path style="opacity:1" fill="#f32d38" d="M 342.5,681.5 C 338.167,686.167 333.833,690.833 329.5,695.5C 281.756,593.722 299.422,505.222 382.5,430C 404.801,411.005 429.134,395.338 455.5,383C 412.841,408.66 377.674,442.16 350,483.5C 312.003,548.045 309.503,614.045 342.5,681.5 Z"/></g>
<g><path style="opacity:1" fill="#fefefe" d="M 723.5,413.5 C 724.693,413.97 725.36,414.97 725.5,416.5C 734.594,469.399 742.928,522.399 750.5,575.5C 651.189,594.962 551.856,614.295 452.5,633.5C 450.327,624.476 447.994,615.476 445.5,606.5C 445.608,605.558 445.941,604.725 446.5,604C 539.247,540.971 631.58,477.471 723.5,413.5 Z"/></g>
<g><path style="opacity:1" fill="#fffdfd" d="M 163.5,506.5 C 197.53,526.267 231.03,546.934 264,568.5C 264.333,586.167 264.667,603.833 265,621.5C 265.567,624.168 266.067,626.834 266.5,629.5C 230.756,617.863 195.256,605.53 160,592.5C 158.84,563.73 160.006,535.063 163.5,506.5 Z"/></g>
<g><path style="opacity:1" fill="#fffdfd" d="M 163.5,627.5 C 198.571,634.214 233.571,641.381 268.5,649C 273.028,661.594 277.028,674.427 280.5,687.5C 245.494,687.354 210.494,687.687 175.5,688.5C 170.218,668.421 166.218,648.088 163.5,627.5 Z"/></g>
<g><path style="opacity:1" fill="#fefefe" d="M 508.5,651.5 C 511.518,651.335 514.518,651.502 517.5,652C 530.833,665.333 544.167,678.667 557.5,692C 578.849,708.007 599.015,725.507 618,744.5C 649.054,779.93 670.721,820.596 683,866.5C 684.218,874.295 682.885,881.629 679,888.5C 671.458,899.043 662.291,907.876 651.5,915C 640.499,921.751 628.999,927.584 617,932.5C 613.616,928.758 610.95,924.424 609,919.5C 569.527,833.415 529.86,747.415 490,661.5C 489.187,659.564 488.687,657.564 488.5,655.5C 495.314,654.271 501.98,652.937 508.5,651.5 Z"/></g>
<g><path style="opacity:1" fill="#9f1623" d="M 342.5,681.5 C 350.228,694.297 357.394,707.297 364,720.5C 358.476,724.02 352.643,726.52 346.5,728C 339.385,717.937 333.718,707.104 329.5,695.5C 333.833,690.833 338.167,686.167 342.5,681.5 Z"/></g>
<g><path style="opacity:1" fill="#fefdfd" d="M 299.5,724.5 C 302.254,728.674 304.42,733.007 306,737.5C 291.863,744.814 278.03,752.481 264.5,760.5C 248.325,768.171 232.492,776.504 217,785.5C 205.329,766.159 195.829,745.825 188.5,724.5C 220.122,717.011 251.789,709.678 283.5,702.5C 285.1,702.551 286.6,702.884 288,703.5C 291.861,710.562 295.695,717.562 299.5,724.5 Z"/></g>
<g><path style="opacity:1" fill="#fefdfd" d="M 415.5,762.5 C 449.648,762.851 483.648,765.351 517.5,770C 519.421,770.36 521.088,771.194 522.5,772.5C 532.385,792.934 541.718,813.601 550.5,834.5C 542.205,849.81 533.872,865.143 525.5,880.5C 524.5,880.833 523.5,881.167 522.5,881.5C 486.455,874.514 450.122,869.68 413.5,867C 381.454,863.977 350.121,866.977 319.5,876C 333.146,845.21 346.646,814.377 360,783.5C 369.478,773.844 380.978,768.01 394.5,766C 401.693,765.142 408.693,763.976 415.5,762.5 Z"/></g>
<g><path style="opacity:1" fill="#a21d27" d="M 418.5,774.5 C 431.213,774.126 443.88,774.626 456.5,776C 433.029,776.939 410.363,781.606 388.5,790C 375.251,807.416 362.584,825.25 350.5,843.5C 349.998,844.521 349.332,844.688 348.5,844C 358.128,824.577 367.628,805.077 377,785.5C 377.833,784.667 378.667,783.833 379.5,783C 392.49,779.508 405.49,776.675 418.5,774.5 Z"/></g>
</svg>
