<?xml version="1.0" encoding="UTF-8"?>
<!DOCTYPE svg PUBLIC "-//W3C//DTD SVG 1.1//EN" "http://www.w3.org/Graphics/SVG/1.1/DTD/svg11.dtd">
<svg xmlns="http://www.w3.org/2000/svg" version="1.1" width="125px" height="125px" style="shape-rendering:geometricPrecision; text-rendering:geometricPrecision; image-rendering:optimizeQuality; fill-rule:evenodd; clip-rule:evenodd" xmlns:xlink="http://www.w3.org/1999/xlink">
<g><path style="opacity:0.959" fill="#2161ae" d="M 5.5,-0.5 C 42.8333,-0.5 80.1667,-0.5 117.5,-0.5C 114.493,37.2453 110.826,74.912 106.5,112.5C 92.6759,116.368 79.0092,120.368 65.5,124.5C 63.1667,124.5 60.8333,124.5 58.5,124.5C 44.7815,120.431 30.9481,116.431 17,112.5C 13.0174,74.8596 9.18409,37.193 5.5,-0.5 Z"/></g>
<g><path style="opacity:1" fill="#2f89c9" d="M 106.5,9.5 C 91.8333,9.5 77.1667,9.5 62.5,9.5C 62.5,13.8333 62.5,18.1667 62.5,22.5C 62.1667,22.5 61.8333,22.5 61.5,22.5C 61.5,17.8333 61.5,13.1667 61.5,8.5C 76.676,8.17056 91.676,8.50389 106.5,9.5 Z"/></g>
<g><path style="opacity:1" fill="#389cd6" d="M 106.5,9.5 C 103.621,41.1569 100.787,72.8236 98,104.5C 86.2116,107.906 74.3783,111.239 62.5,114.5C 61.5067,109.88 61.1734,105.214 61.5,100.5C 62.4916,100.672 63.1583,100.338 63.5,99.5C 72.5366,97.3242 81.5366,94.9908 90.5,92.5C 90.8885,78.4495 91.8885,64.4495 93.5,50.5C 83.5,50.5 73.5,50.5 63.5,50.5C 63.5,50.1667 63.5,49.8333 63.5,49.5C 74.0133,44.7737 84.6799,40.4404 95.5,36.5C 95.8195,31.6367 95.4861,26.97 94.5,22.5C 83.8333,22.5 73.1667,22.5 62.5,22.5C 62.5,18.1667 62.5,13.8333 62.5,9.5C 77.1667,9.5 91.8333,9.5 106.5,9.5 Z"/></g>
<g><path style="opacity:1" fill="#d6e3ec" d="M 61.5,22.5 C 61.8333,22.5 62.1667,22.5 62.5,22.5C 73.1667,22.5 83.8333,22.5 94.5,22.5C 72.1667,23.1667 49.8333,23.8333 27.5,24.5C 26.9569,24.44 26.6236,24.1067 26.5,23.5C 38.1477,22.5011 49.8143,22.1678 61.5,22.5 Z"/></g>
<g><path style="opacity:1" fill="#fafaf9" d="M 94.5,22.5 C 95.4861,26.97 95.8195,31.6367 95.5,36.5C 84.6799,40.4404 74.0133,44.7737 63.5,49.5C 62.6365,50.463 61.9698,50.463 61.5,49.5C 62.8274,45.4697 62.8274,41.4697 61.5,37.5C 62.0431,37.44 62.3764,37.1067 62.5,36.5C 51.1862,35.5012 39.8529,35.1678 28.5,35.5C 28.5,33.8333 28.5,32.1667 28.5,30.5C 29.6305,29.7984 29.9639,31.1317 29.5,34.5C 40.1667,34.5 50.8333,34.5 61.5,34.5C 61.5,31.1667 61.5,27.8333 61.5,24.5C 49.9131,23.8893 38.5798,24.556 27.5,26.5C 27.5,25.8333 27.5,25.1667 27.5,24.5C 49.8333,23.8333 72.1667,23.1667 94.5,22.5 Z"/></g>
<g><path style="opacity:1" fill="#e4e4e3" d="M 28.5,30.5 C 27.5655,29.4324 27.2322,28.099 27.5,26.5C 38.5798,24.556 49.9131,23.8893 61.5,24.5C 61.5,27.8333 61.5,31.1667 61.5,34.5C 50.8333,34.5 40.1667,34.5 29.5,34.5C 29.9639,31.1317 29.6305,29.7984 28.5,30.5 Z"/></g>
<g><path style="opacity:1" fill="#b5c5d7" d="M 28.5,35.5 C 39.8529,35.1678 51.1862,35.5012 62.5,36.5C 62.3764,37.1067 62.0431,37.44 61.5,37.5C 50.5,36.8333 39.5,36.1667 28.5,35.5 Z"/></g>
<g><path style="opacity:1" fill="#e7e7e6" d="M 61.5,37.5 C 62.8274,41.4697 62.8274,45.4697 61.5,49.5C 61.9698,50.463 62.6365,50.463 63.5,49.5C 63.5,49.8333 63.5,50.1667 63.5,50.5C 62.564,54.7352 62.2307,59.0685 62.5,63.5C 62.1667,63.5 61.8333,63.5 61.5,63.5C 51.1667,63.5 40.8333,63.5 30.5,63.5C 30.1734,58.7863 30.5067,54.1196 31.5,49.5C 41.4561,45.2946 51.4561,41.2946 61.5,37.5 Z"/></g>
<g><path style="opacity:1" fill="#f9f9f9" d="M 63.5,50.5 C 73.5,50.5 83.5,50.5 93.5,50.5C 91.8885,64.4495 90.8885,78.4495 90.5,92.5C 81.5366,94.9908 72.5366,97.3242 63.5,99.5C 62.8826,99.3893 62.3826,99.056 62,98.5C 61.8253,94.789 61.3253,91.1224 60.5,87.5C 59.2054,86.9017 57.8721,86.4017 56.5,86C 57.0944,85.5357 57.7611,85.369 58.5,85.5C 59.5,85.5 60.5,85.5 61.5,85.5C 66.53,84.3256 71.53,82.9923 76.5,81.5C 77.2082,75.8125 77.8749,70.1458 78.5,64.5C 73.2079,63.5052 67.8746,63.1718 62.5,63.5C 62.2307,59.0685 62.564,54.7352 63.5,50.5 Z"/></g>
<g><path style="opacity:1" fill="#399bd5" d="M 61.5,63.5 C 61.8333,63.5 62.1667,63.5 62.5,63.5C 67.8746,63.1718 73.2079,63.5052 78.5,64.5C 77.8749,70.1458 77.2082,75.8125 76.5,81.5C 71.53,82.9923 66.53,84.3256 61.5,85.5C 61.5,78.1667 61.5,70.8333 61.5,63.5 Z"/></g>
<g><path style="opacity:1" fill="#769ac4" d="M 45.5,71.5 C 41.1667,71.5 36.8333,71.5 32.5,71.5C 32.5,74.1667 32.5,76.8333 32.5,79.5C 31.5233,76.7131 31.19,73.7131 31.5,70.5C 36.3633,70.1805 41.03,70.5139 45.5,71.5 Z"/></g>
<g><path style="opacity:1" fill="#e4e4e3" d="M 45.5,71.5 C 46.4816,74.9619 46.815,78.6286 46.5,82.5C 50.7024,83.1316 54.7024,84.1316 58.5,85.5C 57.7611,85.369 57.0944,85.5357 56.5,86C 57.8721,86.4017 59.2054,86.9017 60.5,87.5C 61.3253,91.1224 61.8253,94.789 62,98.5C 62.3826,99.056 62.8826,99.3893 63.5,99.5C 63.1583,100.338 62.4916,100.672 61.5,100.5C 52.1667,97.8333 42.8333,95.1667 33.5,92.5C 33.6282,88.1186 33.2949,83.7853 32.5,79.5C 32.5,76.8333 32.5,74.1667 32.5,71.5C 36.8333,71.5 41.1667,71.5 45.5,71.5 Z"/></g>
</svg>
