<?xml version="1.0" encoding="UTF-8"?>
<!DOCTYPE svg PUBLIC "-//W3C//DTD SVG 1.1//EN" "http://www.w3.org/Graphics/SVG/1.1/DTD/svg11.dtd">
<svg xmlns="http://www.w3.org/2000/svg" version="1.1" width="125px" height="125px" style="shape-rendering:geometricPrecision; text-rendering:geometricPrecision; image-rendering:optimizeQuality; fill-rule:evenodd; clip-rule:evenodd" xmlns:xlink="http://www.w3.org/1999/xlink">
<g><path style="opacity:0.995" fill="#4b74a2" d="M 54.5,3.5 C 89.0738,2.91784 110.907,19.2512 120,52.5C 122.03,88.1287 105.864,110.629 71.5,120C 44.1645,122.583 23.6645,112.083 10,88.5C -2.29237,58.1714 4.54096,33.0047 30.5,13C 38.0584,8.37537 46.0584,5.2087 54.5,3.5 Z"/></g>
<g><path style="opacity:1" fill="#fafbfc" d="M 50.5,43.5 C 54.8461,43.3343 59.1794,43.501 63.5,44C 64.3333,44.8333 65.1667,45.6667 66,46.5C 66.1701,52.1958 66.6701,57.8624 67.5,63.5C 69.8955,61.0562 72.0622,58.3895 74,55.5C 75.0987,52.1363 76.5987,48.9696 78.5,46C 83.5,45.3333 88.5,45.3333 93.5,46C 94.5536,47.3876 94.7203,48.8876 94,50.5C 90.4845,56.0103 86.9845,61.5103 83.5,67C 86.6182,71.1211 90.1182,74.9544 94,78.5C 95.3566,82.1429 94.1899,84.3096 90.5,85C 86.8333,85.6667 83.1667,85.6667 79.5,85C 75.6554,81.8198 71.8221,78.6531 68,75.5C 67.228,75.6448 66.5613,75.9781 66,76.5C 65.7744,79.095 65.2744,81.595 64.5,84C 56.6098,85.7687 49.6098,84.102 43.5,79C 37.9492,72.4503 32.7825,65.6169 28,58.5C 21.2747,45.8884 24.7747,41.7218 38.5,46C 40.6146,50.9932 43.1146,55.8265 46,60.5C 47.2426,62.8329 48.9093,63.4996 51,62.5C 51.6667,58.1667 51.6667,53.8333 51,49.5C 46.5655,47.6777 46.3988,45.6777 50.5,43.5 Z"/></g>
</svg>
