<?xml version="1.0" encoding="UTF-8"?>
<!DOCTYPE svg PUBLIC "-//W3C//DTD SVG 1.1//EN" "http://www.w3.org/Graphics/SVG/1.1/DTD/svg11.dtd">
<svg xmlns="http://www.w3.org/2000/svg" version="1.1" width="125px" height="125px" style="shape-rendering:geometricPrecision; text-rendering:geometricPrecision; image-rendering:optimizeQuality; fill-rule:evenodd; clip-rule:evenodd" xmlns:xlink="http://www.w3.org/1999/xlink">
<g><path style="opacity:0.859" fill="#efd664" d="M 5.5,-0.5 C 42.8333,-0.5 80.1667,-0.5 117.5,-0.5C 117.81,2.7131 117.477,5.7131 116.5,8.5C 116.5,5.83333 116.5,3.16667 116.5,0.5C 80.1667,0.5 43.8333,0.5 7.5,0.5C 7.5,3.5 7.5,6.5 7.5,9.5C 5.98864,6.4557 5.32198,3.12237 5.5,-0.5 Z"/></g>
<g><path style="opacity:1" fill="#e9c933" d="M 116.5,8.5 C 116.332,15.5097 115.999,22.5097 115.5,29.5C 114.883,29.6107 114.383,29.944 114,30.5C 113.501,34.4862 113.334,38.4862 113.5,42.5C 113.528,47.8617 113.194,53.1951 112.5,58.5C 110.591,62.7543 110.258,67.0876 111.5,71.5C 111.5,71.8333 111.5,72.1667 111.5,72.5C 109.711,80.2575 108.544,88.2575 108,96.5C 107.346,95.3044 106.846,95.3044 106.5,96.5C 107.448,101.435 107.781,106.435 107.5,111.5C 93.9056,116.031 80.2389,120.365 66.5,124.5C 63.5,124.5 60.5,124.5 57.5,124.5C 44.306,120.327 30.9726,116.327 17.5,112.5C 16.9769,106.986 15.9769,101.653 14.5,96.5C 13.9529,90.1471 13.2862,83.8138 12.5,77.5C 13.1582,76.2067 13.4915,74.7067 13.5,73C 13.0204,66.5935 12.3537,60.2601 11.5,54C 13.158,53.2747 13.658,52.108 13,50.5C 12.6667,51.1667 12.3333,51.8333 12,52.5C 11.8091,50.2922 11.3091,48.2922 10.5,46.5C 9.62743,42.2315 9.2941,37.8982 9.5,33.5C 9.66568,29.1539 9.49902,24.8206 9,20.5C 8.76791,19.2625 8.26791,18.2625 7.5,17.5C 7.20772,14.6239 7.20772,11.9572 7.5,9.5C 7.5,6.5 7.5,3.5 7.5,0.5C 43.8333,0.5 80.1667,0.5 116.5,0.5C 116.5,3.16667 116.5,5.83333 116.5,8.5 Z"/></g>
<g><path style="opacity:1" fill="#fefefd" d="M 57.5,23.5 C 57.6666,49.1688 57.5,74.8355 57,100.5C 46.2899,97.062 35.4566,94.062 24.5,91.5C 24.3343,87.1539 24.501,82.8206 25,78.5C 31.7554,80.7309 38.5887,82.7309 45.5,84.5C 46.4972,64.3402 46.8305,44.0069 46.5,23.5C 50.1667,23.5 53.8333,23.5 57.5,23.5 Z"/></g>
<g><path style="opacity:1" fill="#fbf6df" d="M 57.5,23.5 C 53.8333,23.5 50.1667,23.5 46.5,23.5C 46.8305,44.0069 46.4972,64.3402 45.5,84.5C 45.5,63.8333 45.5,43.1667 45.5,22.5C 49.7016,22.1832 53.7016,22.5166 57.5,23.5 Z"/></g>
<g><path style="opacity:0.42" fill="#f3df85" d="M 7.5,17.5 C 8.26791,18.2625 8.76791,19.2625 9,20.5C 9.49902,24.8206 9.66568,29.1539 9.5,33.5C 8.54157,28.3425 7.8749,23.0092 7.5,17.5 Z"/></g>
<g><path style="opacity:0.637" fill="#f3e089" d="M 115.5,29.5 C 114.949,33.9732 114.283,38.3066 113.5,42.5C 113.334,38.4862 113.501,34.4862 114,30.5C 114.383,29.944 114.883,29.6107 115.5,29.5 Z"/></g>
<g><path style="opacity:0.906" fill="#f0d973" d="M 112.5,58.5 C 112.414,62.8566 112.08,67.19 111.5,71.5C 110.258,67.0876 110.591,62.7543 112.5,58.5 Z"/></g>
<g><path style="opacity:0.667" fill="#f1da75" d="M 10.5,46.5 C 11.3091,48.2922 11.8091,50.2922 12,52.5C 12.3333,51.8333 12.6667,51.1667 13,50.5C 13.658,52.108 13.158,53.2747 11.5,54C 12.3537,60.2601 13.0204,66.5935 13.5,73C 13.4915,74.7067 13.1582,76.2067 12.5,77.5C 11.786,67.1702 11.1193,56.8369 10.5,46.5 Z"/></g>
<g><path style="opacity:1" fill="#fedd29" d="M 61.5,9.5 C 76.1667,9.5 90.8333,9.5 105.5,9.5C 103.162,41.5333 100.496,73.5333 97.5,105.5C 85.9183,108.646 74.2516,111.646 62.5,114.5C 61.5001,79.5063 61.1668,44.5063 61.5,9.5 Z"/></g>
<g><path style="opacity:1" fill="#fee868" d="M 66.5,87.5 C 65.9106,91.9707 66.5772,95.9707 68.5,99.5C 67.791,100.404 66.791,100.737 65.5,100.5C 65.1818,95.9677 65.5151,91.6344 66.5,87.5 Z"/></g>
<g><path style="opacity:1" fill="#fef4bc" d="M 78.5,34.5 C 77.8721,41.9131 78.5388,48.9131 80.5,55.5C 79.791,56.404 78.791,56.7373 77.5,56.5C 77.175,48.9809 77.5084,41.6476 78.5,34.5 Z"/></g>
<g><path style="opacity:1" fill="#fefefb" d="M 78.5,34.5 C 77.5084,41.6476 77.175,48.9809 77.5,56.5C 78.791,56.7373 79.791,56.404 80.5,55.5C 86.1553,54.7514 91.8219,54.0848 97.5,53.5C 96.5601,66.5059 95.5601,79.5059 94.5,92.5C 85.7306,94.5253 77.0639,96.8587 68.5,99.5C 66.5772,95.9707 65.9106,91.9707 66.5,87.5C 72.2646,85.6004 78.0979,83.9338 84,82.5C 84.5008,77.4918 85.0008,72.4918 85.5,67.5C 79.1062,67.646 72.7729,68.3126 66.5,69.5C 66.5,53.8333 66.5,38.1667 66.5,22.5C 77.8333,22.5 89.1667,22.5 100.5,22.5C 100.167,26.5 99.8333,30.5 99.5,34.5C 92.5,34.5 85.5,34.5 78.5,34.5 Z"/></g>
<g><path style="opacity:1" fill="#f1d972" d="M 111.5,72.5 C 110.396,85.6663 109.062,98.6663 107.5,111.5C 107.781,106.435 107.448,101.435 106.5,96.5C 106.846,95.3044 107.346,95.3044 108,96.5C 108.544,88.2575 109.711,80.2575 111.5,72.5 Z"/></g>
<g><path style="opacity:0.853" fill="#f0da75" d="M 14.5,96.5 C 15.9769,101.653 16.9769,106.986 17.5,112.5C 16.2227,111.306 15.5561,109.64 15.5,107.5C 15.0558,103.837 14.7225,100.171 14.5,96.5 Z"/></g>
</svg>
