<?xml version="1.0" encoding="UTF-8"?>
<!DOCTYPE svg PUBLIC "-//W3C//DTD SVG 1.1//EN" "http://www.w3.org/Graphics/SVG/1.1/DTD/svg11.dtd">
<svg xmlns="http://www.w3.org/2000/svg" version="1.1" width="125px" height="125px" style="shape-rendering:geometricPrecision; text-rendering:geometricPrecision; image-rendering:optimizeQuality; fill-rule:evenodd; clip-rule:evenodd" xmlns:xlink="http://www.w3.org/1999/xlink">
<g><path style="opacity:0.976" fill="#e44c25" d="M 6.5,-0.5 C 43.5,-0.5 80.5,-0.5 117.5,-0.5C 114.525,36.7065 111.191,73.8731 107.5,111C 106.318,112.735 104.651,113.735 102.5,114C 90.2917,117.214 78.2917,120.714 66.5,124.5C 63.5,124.5 60.5,124.5 57.5,124.5C 44.1123,120.441 30.6123,116.441 17,112.5C 12.8951,74.9105 9.39512,37.2438 6.5,-0.5 Z"/></g>
<g><path style="opacity:1" fill="#f06428" d="M 61.5,100.5 C 71.2334,98.6536 80.7334,95.9869 90,92.5C 91.5999,78.5344 92.7666,64.5344 93.5,50.5C 83.1667,50.5 72.8333,50.5 62.5,50.5C 62.5,46.1667 62.5,41.8333 62.5,37.5C 56.31,37.8229 50.31,37.4896 44.5,36.5C 50.1667,36.5 55.8333,36.5 61.5,36.5C 72.8333,36.5 84.1667,36.5 95.5,36.5C 95.5401,31.8075 95.8734,27.1408 96.5,22.5C 85.1667,22.5 73.8333,22.5 62.5,22.5C 61.6167,17.8969 61.2834,13.2303 61.5,8.5C 76.5,8.5 91.5,8.5 106.5,8.5C 104.659,40.5872 101.825,72.5872 98,104.5C 86.2533,108.228 74.42,111.561 62.5,114.5C 62.7744,109.737 62.441,105.07 61.5,100.5 Z"/></g>
<g><path style="opacity:1" fill="#fbfbfa" d="M 62.5,22.5 C 73.8333,22.5 85.1667,22.5 96.5,22.5C 95.8734,27.1408 95.5401,31.8075 95.5,36.5C 84.1667,36.5 72.8333,36.5 61.5,36.5C 55.3466,35.6721 49.0133,35.1721 42.5,35C 48.8246,34.5005 55.1579,34.3338 61.5,34.5C 61.5,31.1667 61.5,27.8333 61.5,24.5C 50.8333,24.5 40.1667,24.5 29.5,24.5C 29.81,27.7131 29.4767,30.7131 28.5,33.5C 28.2756,29.8212 27.9422,26.1545 27.5,22.5C 39.1667,22.5 50.8333,22.5 62.5,22.5 Z"/></g>
<g><path style="opacity:1" fill="#ebebeb" d="M 61.5,36.5 C 55.8333,36.5 50.1667,36.5 44.5,36.5C 43.6236,36.3691 42.9569,36.7025 42.5,37.5C 43.4386,41.7649 43.7719,46.0983 43.5,50.5C 49.5,50.5 55.5,50.5 61.5,50.5C 61.5,54.5 61.5,58.5 61.5,62.5C 51.8333,62.5 42.1667,62.5 32.5,62.5C 32.6567,61.1266 32.49,59.7932 32,58.5C 31.5045,60.4727 31.3379,62.4727 31.5,64.5C 30.4522,54.3166 29.4522,43.9832 28.5,33.5C 29.4767,30.7131 29.81,27.7131 29.5,24.5C 40.1667,24.5 50.8333,24.5 61.5,24.5C 61.5,27.8333 61.5,31.1667 61.5,34.5C 55.1579,34.3338 48.8246,34.5005 42.5,35C 49.0133,35.1721 55.3466,35.6721 61.5,36.5 Z"/></g>
<g><path style="opacity:1" fill="#e44a23" d="M 44.5,36.5 C 50.31,37.4896 56.31,37.8229 62.5,37.5C 62.5,41.8333 62.5,46.1667 62.5,50.5C 62.1667,50.5 61.8333,50.5 61.5,50.5C 55.5,50.5 49.5,50.5 43.5,50.5C 43.7719,46.0983 43.4386,41.7649 42.5,37.5C 42.9569,36.7025 43.6236,36.3691 44.5,36.5 Z"/></g>
<g><path style="opacity:1" fill="#fdfbfa" d="M 61.5,50.5 C 61.8333,50.5 62.1667,50.5 62.5,50.5C 72.8333,50.5 83.1667,50.5 93.5,50.5C 92.7666,64.5344 91.5999,78.5344 90,92.5C 80.7334,95.9869 71.2334,98.6536 61.5,100.5C 61.5,95.8333 61.5,91.1667 61.5,86.5C 66.669,84.5411 72.0024,83.2077 77.5,82.5C 77.502,76.477 77.8354,70.477 78.5,64.5C 73.1667,64.5 67.8333,64.5 62.5,64.5C 52.1667,64.5 41.8333,64.5 31.5,64.5C 31.3379,62.4727 31.5045,60.4727 32,58.5C 32.49,59.7932 32.6567,61.1266 32.5,62.5C 42.1667,62.5 51.8333,62.5 61.5,62.5C 61.5,58.5 61.5,54.5 61.5,50.5 Z"/></g>
<g><path style="opacity:1" fill="#f16326" d="M 62.5,64.5 C 67.8333,64.5 73.1667,64.5 78.5,64.5C 77.8354,70.477 77.502,76.477 77.5,82.5C 72.0024,83.2077 66.669,84.5411 61.5,86.5C 60.8333,86.5 60.5,86.1667 60.5,85.5C 62.4612,78.9131 63.1279,71.9131 62.5,64.5 Z"/></g>
<g><path style="opacity:1" fill="#ebeae9" d="M 60.5,85.5 C 60.5,86.1667 60.8333,86.5 61.5,86.5C 61.5,91.1667 61.5,95.8333 61.5,100.5C 52.1831,98.1692 42.8498,95.8358 33.5,93.5C 33.1384,86.2564 32.4717,79.0897 31.5,72C 36.4889,71.5007 41.4889,71.3341 46.5,71.5C 46.5,75.1667 46.5,78.8333 46.5,82.5C 51.227,83.2453 55.8936,84.2453 60.5,85.5 Z"/></g>
</svg>
