<?xml version="1.0" encoding="UTF-8"?>
<!DOCTYPE svg PUBLIC "-//W3C//DTD SVG 1.1//EN" "http://www.w3.org/Graphics/SVG/1.1/DTD/svg11.dtd">
<svg xmlns="http://www.w3.org/2000/svg" version="1.1" width="125px" height="125px" style="shape-rendering:geometricPrecision; text-rendering:geometricPrecision; image-rendering:optimizeQuality; fill-rule:evenodd; clip-rule:evenodd" xmlns:xlink="http://www.w3.org/1999/xlink">
<g><path style="opacity:0.924" fill="#e55a4c" d="M 72.5,124.5 C 65.8333,124.5 59.1667,124.5 52.5,124.5C 17.5674,114.321 0.400734,90.9881 1,54.5C 8.19652,21.6357 28.5299,3.63571 62,0.5C 94.8879,3.05136 115.221,20.3847 123,52.5C 125.08,89.8993 108.247,113.899 72.5,124.5 Z"/></g>
<g><path style="opacity:1" fill="#fefdfc" d="M 54.5,5.5 C 88.2039,5.04941 109.371,21.0494 118,53.5C 120.298,84.8476 106.798,106.014 77.5,117C 42.8808,122.946 19.7142,109.446 8,76.5C 2.9517,39.2422 18.4517,15.5755 54.5,5.5 Z"/></g>
<g><path style="opacity:1" fill="#e55b4d" d="M 32.5,35.5 C 41.7623,43.802 51.7623,51.1353 62.5,57.5C 72.8825,50.6467 82.8825,43.3134 92.5,35.5C 96.1635,33.7982 98.9969,34.7982 101,38.5C 101.828,54.672 101.661,70.672 100.5,86.5C 100.832,71.7539 100.499,57.7539 99.5,44.5C 96.4887,45.6693 93.822,47.336 91.5,49.5C 81.8649,55.8108 72.5315,62.4775 63.5,69.5C 53.2458,63.2514 43.2458,56.5848 33.5,49.5C 33.1583,48.6618 32.4916,48.3284 31.5,48.5C 30.5044,61.6562 30.1711,74.9895 30.5,88.5C 28.6096,88.7035 27.1096,88.0368 26,86.5C 25.1957,69.7893 25.3624,53.1226 26.5,36.5C 28.0445,34.195 30.0445,33.8617 32.5,35.5 Z"/></g>
<g><path style="opacity:1" fill="#f6f3ec" d="M 92.5,35.5 C 82.8825,43.3134 72.8825,50.6467 62.5,57.5C 51.7623,51.1353 41.7623,43.802 32.5,35.5C 52.4022,34.1746 72.4022,34.1746 92.5,35.5 Z"/></g>
<g><path style="opacity:1" fill="#b0392f" d="M 99.5,44.5 C 99.6666,58.504 99.4999,72.504 99,86.5C 97.5557,88.1554 95.7224,88.822 93.5,88.5C 93.8288,75.3226 93.4955,62.3226 92.5,49.5C 92.1667,49.5 91.8333,49.5 91.5,49.5C 93.822,47.336 96.4887,45.6693 99.5,44.5 Z"/></g>
<g><path style="opacity:1" fill="#a71c11" d="M 100.5,86.5 C 99.8333,87.8333 98.8333,88.8333 97.5,89.5C 95.8333,89.5 94.1667,89.5 92.5,89.5C 92.5,76.1667 92.5,62.8333 92.5,49.5C 93.4955,62.3226 93.8288,75.3226 93.5,88.5C 95.7224,88.822 97.5557,88.1554 99,86.5C 99.4999,72.504 99.6666,58.504 99.5,44.5C 100.499,57.7539 100.832,71.7539 100.5,86.5 Z"/></g>
<g><path style="opacity:1" fill="#e67669" d="M 31.5,48.5 C 32.4916,48.3284 33.1583,48.6618 33.5,49.5C 32.5043,62.9898 32.171,76.6565 32.5,90.5C 30.5853,90.7845 28.9187,90.4511 27.5,89.5C 28.8333,89.5 30.1667,89.5 31.5,89.5C 31.5,75.8333 31.5,62.1667 31.5,48.5 Z"/></g>
<g><path style="opacity:1" fill="#e6e3d7" d="M 33.5,49.5 C 43.2458,56.5848 53.2458,63.2514 63.5,69.5C 72.3218,76.4105 81.3218,83.0772 90.5,89.5C 71.3405,90.497 52.0072,90.8303 32.5,90.5C 32.171,76.6565 32.5043,62.9898 33.5,49.5 Z"/></g>
<g><path style="opacity:1" fill="#b5b6ad" d="M 91.5,49.5 C 91.5,62.8333 91.5,76.1667 91.5,89.5C 91.1667,89.5 90.8333,89.5 90.5,89.5C 81.3218,83.0772 72.3218,76.4105 63.5,69.5C 72.5315,62.4775 81.8649,55.8108 91.5,49.5 Z"/></g>
<g><path style="opacity:1" fill="#e65445" d="M 26.5,36.5 C 25.3624,53.1226 25.1957,69.7893 26,86.5C 27.1096,88.0368 28.6096,88.7035 30.5,88.5C 30.1711,74.9895 30.5044,61.6562 31.5,48.5C 31.5,62.1667 31.5,75.8333 31.5,89.5C 30.1667,89.5 28.8333,89.5 27.5,89.5C 26.2058,88.7101 25.0391,87.7101 24,86.5C 23.3333,70.5 23.3333,54.5 24,38.5C 24.7083,37.6195 25.5416,36.9528 26.5,36.5 Z"/></g>
<g><path style="opacity:1" fill="#b98c83" d="M 91.5,49.5 C 91.8333,49.5 92.1667,49.5 92.5,49.5C 92.5,62.8333 92.5,76.1667 92.5,89.5C 94.1667,89.5 95.8333,89.5 97.5,89.5C 95.5,90.8333 93.5,90.8333 91.5,89.5C 91.5,76.1667 91.5,62.8333 91.5,49.5 Z"/></g>
</svg>
