<?xml version="1.0" encoding="UTF-8"?>
<!DOCTYPE svg PUBLIC "-//W3C//DTD SVG 1.1//EN" "http://www.w3.org/Graphics/SVG/1.1/DTD/svg11.dtd">
<svg xmlns="http://www.w3.org/2000/svg" version="1.1" width="125px" height="125px" style="shape-rendering:geometricPrecision; text-rendering:geometricPrecision; image-rendering:optimizeQuality; fill-rule:evenodd; clip-rule:evenodd" xmlns:xlink="http://www.w3.org/1999/xlink">
<g><path style="opacity:0.997" fill="#de4b35" d="M 57.5,-0.5 C 60.1667,-0.5 62.8333,-0.5 65.5,-0.5C 85.5,18.8333 105.167,38.5 124.5,58.5C 124.5,61.1667 124.5,63.8333 124.5,66.5C 104.833,85.5 85.5,104.833 66.5,124.5C 63.8333,124.5 61.1667,124.5 58.5,124.5C 38.5,105.167 18.8333,85.5 -0.5,65.5C -0.5,62.8333 -0.5,60.1667 -0.5,57.5C 12.5,44.8333 25.5,32.1667 38.5,19.5C 43.4063,22.8983 47.9063,26.8983 52,31.5C 51.3072,37.3598 53.3072,42.0264 58,45.5C 58.6667,56.8333 58.6667,68.1667 58,79.5C 50.5782,85.8249 50.7448,91.9916 58.5,98C 68.4956,99.0023 72.6623,94.5023 71,84.5C 70.3632,82.6969 69.1965,81.3636 67.5,80.5C 66.3342,69.1813 66.1675,57.848 67,46.5C 70.6667,50.1667 74.3333,53.8333 78,57.5C 77.3331,66.8181 81.4998,71.6515 90.5,72C 96.7767,69.6113 98.9433,65.1113 97,58.5C 96.1667,56.3333 94.6667,54.8333 92.5,54C 89.8333,53.6667 87.1667,53.3333 84.5,53C 80.3333,48.8333 76.1667,44.6667 72,40.5C 72.8333,30.6667 68.3333,26.1667 58.5,27C 53.5663,22.5738 49.233,17.7405 45.5,12.5C 49.5,8.16667 53.5,3.83333 57.5,-0.5 Z"/></g>
<g><path style="opacity:0.998" fill="#fefafa" d="M 45.5,12.5 C 49.233,17.7405 53.5663,22.5738 58.5,27C 68.3333,26.1667 72.8333,30.6667 72,40.5C 76.1667,44.6667 80.3333,48.8333 84.5,53C 87.1667,53.3333 89.8333,53.6667 92.5,54C 94.6667,54.8333 96.1667,56.3333 97,58.5C 98.9433,65.1113 96.7767,69.6113 90.5,72C 81.4998,71.6515 77.3331,66.8181 78,57.5C 74.3333,53.8333 70.6667,50.1667 67,46.5C 66.1675,57.848 66.3342,69.1813 67.5,80.5C 69.1965,81.3636 70.3632,82.6969 71,84.5C 72.6623,94.5023 68.4956,99.0023 58.5,98C 50.7448,91.9916 50.5782,85.8249 58,79.5C 58.6667,68.1667 58.6667,56.8333 58,45.5C 53.3072,42.0264 51.3072,37.3598 52,31.5C 47.9063,26.8983 43.4063,22.8983 38.5,19.5C 40.5,16.8333 42.8333,14.5 45.5,12.5 Z"/></g>
</svg>
