<?xml version="1.0" encoding="UTF-8"?>
<!DOCTYPE svg PUBLIC "-//W3C//DTD SVG 1.1//EN" "http://www.w3.org/Graphics/SVG/1.1/DTD/svg11.dtd">
<svg xmlns="http://www.w3.org/2000/svg" version="1.1" width="125px" height="125px" style="shape-rendering:geometricPrecision; text-rendering:geometricPrecision; image-rendering:optimizeQuality; fill-rule:evenodd; clip-rule:evenodd" xmlns:xlink="http://www.w3.org/1999/xlink">
<g><path style="opacity:0.991" fill="#36ace0" d="M 50.5,-0.5 C 58.1667,-0.5 65.8333,-0.5 73.5,-0.5C 99.7265,6.72623 116.726,23.3929 124.5,49.5C 124.5,52.1667 124.5,54.8333 124.5,57.5C 115.367,53.3552 105.7,49.1885 95.5,45C 94.7362,42.9307 94.2362,40.764 94,38.5C 93.8227,42.3563 93.3227,46.023 92.5,49.5C 92.6653,45.8183 92.4986,42.1516 92,38.5C 89.5408,37.3511 87.0408,37.3511 84.5,38.5C 81.9621,38.862 79.2954,38.362 76.5,37C 58.312,29.2289 40.312,21.3956 22.5,13.5C 30.7698,6.69842 40.1031,2.03176 50.5,-0.5 Z"/></g>
<g><path style="opacity:0.999" fill="#2ea5d9" d="M 22.5,13.5 C 40.312,21.3956 58.312,29.2289 76.5,37C 79.2954,38.362 81.9621,38.862 84.5,38.5C 75.5965,42.3579 66.5965,46.0246 57.5,49.5C 41.3721,42.8978 25.3721,35.8978 9.5,28.5C 12.7191,22.6087 17.0524,17.6087 22.5,13.5 Z"/></g>
<g><path style="opacity:0.997" fill="#289fd2" d="M 9.5,28.5 C 25.3721,35.8978 41.3721,42.8978 57.5,49.5C 48.3821,53.2254 39.3821,57.2254 30.5,61.5C 21.9807,59.2646 13.6473,56.0979 5.5,52C 3.5273,51.5045 1.5273,51.3379 -0.5,51.5C -0.5,51.1667 -0.5,50.8333 -0.5,50.5C 1.47942,42.5662 4.81275,35.2328 9.5,28.5 Z"/></g>
<g><path style="opacity:1" fill="#fcfdfe" d="M 92.5,49.5 C 90.8516,56.0582 89.8516,62.7249 89.5,69.5C 87.898,77.4401 86.398,85.4401 85,93.5C 82.3214,96.8346 79.1547,97.3346 75.5,95C 68.672,90.0852 61.672,85.4186 54.5,81C 52.6751,79.5341 52.1751,77.7008 53,75.5C 59.6972,68.4683 66.6972,61.8016 74,55.5C 74.7494,54.365 74.5827,53.365 73.5,52.5C 63.3092,60.0943 52.6425,66.9276 41.5,73C 34.41,73.4165 27.91,71.5831 22,67.5C 21.3123,66.6683 21.479,66.0016 22.5,65.5C 25.2198,64.1401 27.8864,62.8068 30.5,61.5C 39.3821,57.2254 48.3821,53.2254 57.5,49.5C 66.5965,46.0246 75.5965,42.3579 84.5,38.5C 87.0408,37.3511 89.5408,37.3511 92,38.5C 92.4986,42.1516 92.6653,45.8183 92.5,49.5 Z"/></g>
<g><path style="opacity:0.997" fill="#2ea5d8" d="M 124.5,57.5 C 124.5,63.1667 124.5,68.8333 124.5,74.5C 123.47,77.9502 122.137,81.2835 120.5,84.5C 119.986,83.3754 119.653,82.2087 119.5,81C 109.785,76.3044 99.7847,72.471 89.5,69.5C 89.8516,62.7249 90.8516,56.0582 92.5,49.5C 93.3227,46.023 93.8227,42.3563 94,38.5C 94.2362,40.764 94.7362,42.9307 95.5,45C 105.7,49.1885 115.367,53.3552 124.5,57.5 Z"/></g>
<g><path style="opacity:0.996" fill="#249acd" d="M -0.5,51.5 C 1.5273,51.3379 3.5273,51.5045 5.5,52C 13.6473,56.0979 21.9807,59.2646 30.5,61.5C 27.8864,62.8068 25.2198,64.1401 22.5,65.5C 21.479,66.0016 21.3123,66.6683 22,67.5C 27.91,71.5831 34.41,73.4165 41.5,73C 52.6425,66.9276 63.3092,60.0943 73.5,52.5C 74.5827,53.365 74.7494,54.365 74,55.5C 66.6972,61.8016 59.6972,68.4683 53,75.5C 52.1751,77.7008 52.6751,79.5341 54.5,81C 61.672,85.4186 68.672,90.0852 75.5,95C 79.1547,97.3346 82.3214,96.8346 85,93.5C 86.398,85.4401 87.898,77.4401 89.5,69.5C 99.7847,72.471 109.785,76.3044 119.5,81C 119.653,82.2087 119.986,83.3754 120.5,84.5C 117.201,95.4538 110.868,104.12 101.5,110.5C 67.3823,95.0822 33.3823,80.4156 -0.5,66.5C -0.5,61.5 -0.5,56.5 -0.5,51.5 Z"/></g>
<g><path style="opacity:0.998" fill="#1e96c8" d="M -0.5,66.5 C 33.3823,80.4156 67.3823,95.0822 101.5,110.5C 93.7362,117.549 84.7362,122.215 74.5,124.5C 66.1667,124.5 57.8333,124.5 49.5,124.5C 23.4195,116.753 6.75281,99.7526 -0.5,73.5C -0.5,71.1667 -0.5,68.8333 -0.5,66.5 Z"/></g>
</svg>
