<?xml version="1.0" encoding="UTF-8"?>
<!DOCTYPE svg PUBLIC "-//W3C//DTD SVG 1.1//EN" "http://www.w3.org/Graphics/SVG/1.1/DTD/svg11.dtd">
<svg xmlns="http://www.w3.org/2000/svg" version="1.1" width="125px" height="125px" style="shape-rendering:geometricPrecision; text-rendering:geometricPrecision; image-rendering:optimizeQuality; fill-rule:evenodd; clip-rule:evenodd" xmlns:xlink="http://www.w3.org/1999/xlink">
<g><path style="opacity:0.995" fill="#7c509f" d="M 52.5,5.5 C 86.6765,3.48818 108.51,18.8215 118,51.5C 121.248,85.8537 106.414,108.02 73.5,118C 43.4873,121.414 21.9873,109.581 9,82.5C 0.0855085,53.2405 8.25218,30.0739 33.5,13C 39.5991,9.58469 45.9325,7.08469 52.5,5.5 Z"/></g>
<g><path style="opacity:1" fill="#f4f1f7" d="M 62.5,28.5 C 83.6073,30.0682 94.274,41.4015 94.5,62.5C 93.5,62.5 92.5,62.5 91.5,62.5C 90.8605,43.1906 80.8605,32.5239 61.5,30.5C 61.8627,29.8165 62.1961,29.1499 62.5,28.5 Z"/></g>
<g><path style="opacity:1" fill="#fcfbfd" d="M 37.5,29.5 C 39.5273,29.3379 41.5273,29.5045 43.5,30C 47.6121,34.3911 51.1121,39.2245 54,44.5C 54.6667,45.8333 54.6667,47.1667 54,48.5C 47.3636,53.34 46.6969,59.0067 52,65.5C 56.2832,71.0538 61.7832,74.7204 68.5,76.5C 71.2376,75.2717 73.5709,73.4383 75.5,71C 77.1667,70.3333 78.8333,70.3333 80.5,71C 85.7755,73.8879 90.6089,77.3879 95,81.5C 95.6347,83.6354 95.3014,85.6354 94,87.5C 91.5,90 89,92.5 86.5,95C 84.1667,95.6667 81.8333,95.6667 79.5,95C 54.167,84.3357 37.167,66.0024 28.5,40C 30.5945,35.7377 33.5945,32.2377 37.5,29.5 Z"/></g>
<g><path style="opacity:1" fill="#f4f0f7" d="M 64.5,36.5 C 79.3625,37.0282 86.6958,44.6948 86.5,59.5C 85.5,59.5 84.5,59.5 83.5,59.5C 83.2691,47.0999 76.9358,40.2665 64.5,39C 63.4019,38.2303 63.4019,37.397 64.5,36.5 Z"/></g>
<g><path style="opacity:1" fill="#f5f1f7" d="M 67.5,44.5 C 71.7967,45.0661 75.2967,47.0661 78,50.5C 78.8513,53.053 78.518,55.3863 77,57.5C 75.744,55.2457 74.5773,52.9123 73.5,50.5C 71.5101,49.1268 69.3434,48.1268 67,47.5C 66.5304,46.4232 66.6971,45.4232 67.5,44.5 Z"/></g>
</svg>
