<?xml version="1.0" encoding="UTF-8"?>
<!DOCTYPE svg PUBLIC "-//W3C//DTD SVG 1.1//EN" "http://www.w3.org/Graphics/SVG/1.1/DTD/svg11.dtd">
<svg xmlns="http://www.w3.org/2000/svg" version="1.1" width="125px" height="125px" style="shape-rendering:geometricPrecision; text-rendering:geometricPrecision; image-rendering:optimizeQuality; fill-rule:evenodd; clip-rule:evenodd" xmlns:xlink="http://www.w3.org/1999/xlink">
<g><path style="opacity:0.997" fill="#03b4dc" d="M -0.5,1.5 C 40.8333,1.5 82.1667,1.5 123.5,1.5C 123.5,4.16667 123.5,6.83333 123.5,9.5C 122.502,46.3296 122.168,83.3296 122.5,120.5C 82.1667,120.5 41.8333,120.5 1.5,120.5C 1.83281,82.4272 1.49948,45.0938 0.5,8.5C 0.166667,8.5 -0.166667,8.5 -0.5,8.5C -0.5,6.16667 -0.5,3.83333 -0.5,1.5 Z"/></g>
<g><path style="opacity:0.6" fill="#499bb0" d="M -0.5,1.5 C -0.5,1.16667 -0.5,0.833333 -0.5,0.5C 41.1667,0.5 82.8333,0.5 124.5,0.5C 124.5,39.1667 124.5,77.8333 124.5,116.5C 124.167,116.5 123.833,116.5 123.5,116.5C 123.5,80.8333 123.5,45.1667 123.5,9.5C 123.5,6.83333 123.5,4.16667 123.5,1.5C 82.1667,1.5 40.8333,1.5 -0.5,1.5 Z"/></g>
<g><path style="opacity:1" fill="#06212d" d="M 7.5,6.5 C 7.5,7.16667 7.5,7.83333 7.5,8.5C 6.16667,44.1667 6.16667,79.8333 7.5,115.5C 43.5,115.5 79.5,115.5 115.5,115.5C 117.494,79.5153 118.16,43.182 117.5,6.5C 119.494,43.1516 120.16,80.1516 119.5,117.5C 81.5,117.5 43.5,117.5 5.5,117.5C 4.83959,80.1516 5.50625,43.1516 7.5,6.5 Z"/></g>
<g><path style="opacity:1" fill="#032330" d="M 7.5,8.5 C 7.33338,28.1695 7.50005,47.8362 8,67.5C 8.33333,67.1667 8.66667,66.8333 9,66.5C 14,74.1667 20.3333,80.5 28,85.5C 28.4997,77.8406 28.6664,70.1739 28.5,62.5C 28.1721,51.3206 28.5054,40.3206 29.5,29.5C 29.5,48.5 29.5,67.5 29.5,86.5C 33.0419,86.8128 36.3752,86.4794 39.5,85.5C 39.5,78.8333 39.5,72.1667 39.5,65.5C 42.8333,65.5 46.1667,65.5 49.5,65.5C 48.495,67.1584 45.8283,67.8251 41.5,67.5C 41.5,69.8333 41.5,72.1667 41.5,74.5C 41.5,78.1667 41.5,81.8333 41.5,85.5C 48.6237,86.981 55.6237,86.481 62.5,84C 61.3044,83.3457 61.3044,82.8457 62.5,82.5C 63.6825,84.6454 65.1825,84.6454 67,82.5C 67.3333,80.1667 67.6667,77.8333 68,75.5C 68.3826,76.056 68.8826,76.3893 69.5,76.5C 69.3359,79.1873 69.5026,81.854 70,84.5C 70.7504,85.1258 71.5838,85.6258 72.5,86C 77.1667,86.6667 81.8333,86.6667 86.5,86C 94.8506,82.2931 97.3506,76.1265 94,67.5C 89.3676,63.4487 84.5343,59.782 79.5,56.5C 84.0924,58.4868 88.7591,61.1535 93.5,64.5C 95.3582,66.8831 96.6916,69.5498 97.5,72.5C 98.0641,75.5414 98.3974,78.3748 98.5,81C 97.1509,81.7724 96.3176,82.9391 96,84.5C 90.9531,87.2995 86.1197,90.4661 81.5,94C 80.5509,94.6172 79.7175,94.4506 79,93.5C 77.3099,96.0237 75.1432,98.0237 72.5,99.5C 73.0253,100.192 73.6919,100.692 74.5,101C 69.8218,101.197 69.4884,102.197 73.5,104C 71.4213,104.808 69.4213,104.641 67.5,103.5C 68.0253,102.808 68.6919,102.308 69.5,102C 65.5834,100.02 62.25,100.854 59.5,104.5C 58.3961,103.369 58.7295,102.535 60.5,102C 60,101.833 59.5,101.667 59,101.5C 56.3186,101.671 53.4852,101.837 50.5,102C 52.2705,102.535 52.6039,103.369 51.5,104.5C 50.5,103.167 49.5,103.167 48.5,104.5C 47.3961,103.369 47.7295,102.535 49.5,102C 46.8333,101.333 44.1667,101.333 41.5,102C 42.6956,102.654 42.6956,103.154 41.5,103.5C 33.5126,100.672 25.8459,97.1723 18.5,93C 16.1945,91.3352 13.8612,89.6686 11.5,88C 9.51255,86.6811 8.34588,84.8477 8,82.5C 7.50015,93.495 7.33349,104.495 7.5,115.5C 6.16667,79.8333 6.16667,44.1667 7.5,8.5 Z"/></g>
<g><path style="opacity:1" fill="#022330" d="M 7.5,6.5 C 44.1667,6.5 80.8333,6.5 117.5,6.5C 118.16,43.182 117.494,79.5153 115.5,115.5C 116.145,97.7625 115.478,80.2625 113.5,63C 115.487,60.5301 115.987,57.6967 115,54.5C 114.444,56.5951 113.944,56.7618 113.5,55C 115.361,52.0538 115.861,48.8871 115,45.5C 114.781,46.938 114.281,48.2713 113.5,49.5C 113.167,49.3333 112.833,49.1667 112.5,49C 113.912,46.337 114.912,43.5037 115.5,40.5C 115.351,38.6803 114.684,37.1803 113.5,36C 114.798,31.9228 115.464,27.5894 115.5,23C 115.333,18.8333 115.167,14.6667 115,10.5C 114.333,13.1667 113.667,13.1667 113,10.5C 112.667,11.1667 112.333,11.8333 112,12.5C 111.161,11.3759 109.994,10.7092 108.5,10.5C 106.447,10.8511 104.781,11.1844 103.5,11.5C 106.338,13.8569 107.505,16.8569 107,20.5C 106.549,18.0712 105.715,17.9045 104.5,20C 105.714,22.3506 106.548,24.8506 107,27.5C 108.067,28.1905 109.234,28.6905 110.5,29C 106.5,30 106.5,31 110.5,32C 108.845,33.4443 108.178,35.2776 108.5,37.5C 112.838,37.6219 113.172,37.9553 109.5,38.5C 109.336,41.1873 109.503,43.854 110,46.5C 110.308,45.6919 110.808,45.0253 111.5,44.5C 111.736,45.2472 112.07,46.0805 112.5,47C 111.167,47.3333 109.833,47.6667 108.5,48C 109.167,48.3333 109.833,48.6667 110.5,49C 108.996,50.3369 107.996,52.0036 107.5,54C 109.35,56.0328 110.016,56.0328 109.5,54C 110.5,53.3333 111.5,53.3333 112.5,54C 111.33,55.7547 109.663,56.7547 107.5,57C 107.833,57.3333 108.167,57.6667 108.5,58C 106.719,60.4872 105.553,63.3205 105,66.5C 104.5,67.6667 103.667,68.5 102.5,69C 102.404,70.373 102.57,71.873 103,73.5C 102.667,73.1667 102.333,72.8333 102,72.5C 100.35,75.106 98.8499,75.106 97.5,72.5C 96.6916,69.5498 95.3582,66.8831 93.5,64.5C 95.66,60.8972 97.3266,57.3972 98.5,54C 95.8333,53 95.8333,52 98.5,51C 97.1667,49.6667 97.1667,48.3333 98.5,47C 97.8333,42.6667 97.1667,38.3333 96.5,34C 97.4581,32.8525 97.1247,31.8525 95.5,31C 98.1667,30.3333 98.1667,29.6667 95.5,29C 95.8333,28.6667 96.1667,28.3333 96.5,28C 93.1539,20.969 88.8206,14.6356 83.5,9C 58.1689,8.50003 32.8355,8.33336 7.5,8.5C 7.5,7.83333 7.5,7.16667 7.5,6.5 Z"/></g>
<g><path style="opacity:1" fill="#0c2c39" d="M 7.5,8.5 C 32.8355,8.33336 58.1689,8.50003 83.5,9C 88.8206,14.6356 93.1539,20.969 96.5,28C 96.1667,28.3333 95.8333,28.6667 95.5,29C 98.1667,29.6667 98.1667,30.3333 95.5,31C 97.1247,31.8525 97.4581,32.8525 96.5,34C 97.1667,38.3333 97.8333,42.6667 98.5,47C 97.1667,48.3333 97.1667,49.6667 98.5,51C 95.8333,52 95.8333,53 98.5,54C 97.3266,57.3972 95.66,60.8972 93.5,64.5C 88.7591,61.1535 84.0924,58.4868 79.5,56.5C 78.2006,54.8466 78.5339,53.3466 80.5,52C 84.701,51.0776 88.701,51.5776 92.5,53.5C 95.3573,45.5806 92.6907,42.2472 84.5,43.5C 80.9349,43.3186 77.6016,43.9852 74.5,45.5C 73.2617,45.19 73.2617,44.69 74.5,44C 77.3634,42.6011 80.3634,41.6011 83.5,41C 82.1667,40.3333 81.1667,39.3333 80.5,38C 80.7451,35.9114 80.7451,33.9114 80.5,32C 79.4264,28.8405 77.4264,26.5072 74.5,25C 76.9288,24.5488 77.0955,23.7155 75,22.5C 74.0862,23.6537 73.2529,23.487 72.5,22C 72.8333,21.6667 73.1667,21.3333 73.5,21C 71.0558,20.1964 69.2225,18.6964 68,16.5C 67.6667,16.8333 67.3333,17.1667 67,17.5C 63.5404,14.8953 59.7071,12.8953 55.5,11.5C 52.3013,12.7994 49.1347,12.7994 46,11.5C 45.1475,13.1247 44.1475,13.4581 43,12.5C 41.8989,14.3939 40.5655,15.0606 39,14.5C 35.6193,15.5472 32.4526,17.0472 29.5,19C 27.5776,20.46 26.9109,22.1267 27.5,24C 26.7471,25.487 25.9138,25.6537 25,24.5C 24.6905,25.7659 24.1905,26.9326 23.5,28C 23.9589,29.9427 22.9589,31.276 20.5,32C 20.5,39.6667 20.5,47.3333 20.5,55C 22.9724,56.6013 23.9724,58.6013 23.5,61C 25.1545,61.6077 26.8211,62.1077 28.5,62.5C 28.6664,70.1739 28.4997,77.8406 28,85.5C 20.3333,80.5 14,74.1667 9,66.5C 8.66667,66.8333 8.33333,67.1667 8,67.5C 7.50005,47.8362 7.33338,28.1695 7.5,8.5 Z"/></g>
<g><path style="opacity:1" fill="#00bbe8" d="M 123.5,9.5 C 123.5,45.1667 123.5,80.8333 123.5,116.5C 123.5,118.167 123.5,119.833 123.5,121.5C 82.5,121.5 41.5,121.5 0.5,121.5C 0.5,83.8333 0.5,46.1667 0.5,8.5C 1.49948,45.0938 1.83281,82.4272 1.5,120.5C 41.8333,120.5 82.1667,120.5 122.5,120.5C 122.168,83.3296 122.502,46.3296 123.5,9.5 Z"/></g>
<g><path style="opacity:1" fill="#0d2c39" d="M 75.5,66.5 C 79.1894,68.0969 82.6894,70.0969 86,72.5C 86.6753,77.3209 84.5086,79.3209 79.5,78.5C 76.0234,78.857 73.0234,77.857 70.5,75.5C 69.8933,75.6236 69.56,75.9569 69.5,76.5C 68.8826,76.3893 68.3826,76.056 68,75.5C 67.6667,77.8333 67.3333,80.1667 67,82.5C 65.1825,84.6454 63.6825,84.6454 62.5,82.5C 61.3044,82.8457 61.3044,83.3457 62.5,84C 55.6237,86.481 48.6237,86.981 41.5,85.5C 41.5,81.8333 41.5,78.1667 41.5,74.5C 42.9068,71.9608 44.0735,72.2942 45,75.5C 45.6891,74.6433 46.5224,73.9767 47.5,73.5C 52.3945,73.9912 57.0612,73.9912 61.5,73.5C 62.6956,73.1543 62.6956,72.6543 61.5,72C 63.7924,73.1009 65.2924,72.2676 66,69.5C 67.8402,70.8331 68.3402,70.6665 67.5,69C 69.6061,65.9522 72.2728,65.1189 75.5,66.5 Z"/></g>
<g><path style="opacity:1" fill="#00c8f4" d="M 30.5,29.5 C 37.175,29.3337 43.8417,29.5004 50.5,30C 44.1754,30.4995 37.8421,30.6662 31.5,30.5C 31.5,48.5 31.5,66.5 31.5,84.5C 33.5,84.5 35.5,84.5 37.5,84.5C 37.3338,78.1579 37.5005,71.8246 38,65.5C 38.4996,72.1583 38.6663,78.825 38.5,85.5C 35.8333,85.5 33.1667,85.5 30.5,85.5C 30.5,66.8333 30.5,48.1667 30.5,29.5 Z"/></g>
<g><path style="opacity:1" fill="#0a6881" d="M 29.5,29.5 C 29.8333,29.5 30.1667,29.5 30.5,29.5C 30.5,48.1667 30.5,66.8333 30.5,85.5C 33.1667,85.5 35.8333,85.5 38.5,85.5C 38.8333,85.5 39.1667,85.5 39.5,85.5C 36.3752,86.4794 33.0419,86.8128 29.5,86.5C 29.5,67.5 29.5,48.5 29.5,29.5 Z"/></g>
<g><path style="opacity:1" fill="#00b5de" d="M 79.5,56.5 C 84.5343,59.782 89.3676,63.4487 94,67.5C 97.3506,76.1265 94.8506,82.2931 86.5,86C 81.8333,86.6667 77.1667,86.6667 72.5,86C 71.5838,85.6258 70.7504,85.1258 70,84.5C 69.5026,81.854 69.3359,79.1873 69.5,76.5C 69.56,75.9569 69.8933,75.6236 70.5,75.5C 73.0234,77.857 76.0234,78.857 79.5,78.5C 84.5086,79.3209 86.6753,77.3209 86,72.5C 82.6894,70.0969 79.1894,68.0969 75.5,66.5C 68.0563,59.7618 67.723,52.7618 74.5,45.5C 77.6016,43.9852 80.9349,43.3186 84.5,43.5C 92.6907,42.2472 95.3573,45.5806 92.5,53.5C 88.701,51.5776 84.701,51.0776 80.5,52C 78.5339,53.3466 78.2006,54.8466 79.5,56.5 Z"/></g>
<g><path style="opacity:1" fill="#01b3db" d="M 30.5,29.5 C 37.3209,28.3454 44.3209,28.1787 51.5,29C 64.6419,34.7456 68.1419,44.2456 62,57.5C 58.6221,61.594 54.4554,64.2607 49.5,65.5C 46.1667,65.5 42.8333,65.5 39.5,65.5C 39.5,72.1667 39.5,78.8333 39.5,85.5C 39.1667,85.5 38.8333,85.5 38.5,85.5C 38.6663,78.825 38.4996,72.1583 38,65.5C 37.5005,71.8246 37.3338,78.1579 37.5,84.5C 35.5,84.5 33.5,84.5 31.5,84.5C 31.5,66.5 31.5,48.5 31.5,30.5C 37.8421,30.6662 44.1754,30.4995 50.5,30C 43.8417,29.5004 37.175,29.3337 30.5,29.5 Z"/></g>
<g><path style="opacity:1" fill="#163340" d="M 74.5,45.5 C 67.723,52.7618 68.0563,59.7618 75.5,66.5C 72.2728,65.1189 69.6061,65.9522 67.5,69C 68.3402,70.6665 67.8402,70.8331 66,69.5C 65.2924,72.2676 63.7924,73.1009 61.5,72C 62.6956,72.6543 62.6956,73.1543 61.5,73.5C 57.0612,73.9912 52.3945,73.9912 47.5,73.5C 46.5224,73.9767 45.6891,74.6433 45,75.5C 44.0735,72.2942 42.9068,71.9608 41.5,74.5C 41.5,72.1667 41.5,69.8333 41.5,67.5C 45.8283,67.8251 48.495,67.1584 49.5,65.5C 54.4554,64.2607 58.6221,61.594 62,57.5C 68.1419,44.2456 64.6419,34.7456 51.5,29C 44.3209,28.1787 37.3209,28.3454 30.5,29.5C 30.1667,29.5 29.8333,29.5 29.5,29.5C 28.5054,40.3206 28.1721,51.3206 28.5,62.5C 26.8211,62.1077 25.1545,61.6077 23.5,61C 23.9724,58.6013 22.9724,56.6013 20.5,55C 20.5,47.3333 20.5,39.6667 20.5,32C 22.9589,31.276 23.9589,29.9427 23.5,28C 24.1905,26.9326 24.6905,25.7659 25,24.5C 25.9138,25.6537 26.7471,25.487 27.5,24C 26.9109,22.1267 27.5776,20.46 29.5,19C 32.4526,17.0472 35.6193,15.5472 39,14.5C 40.5655,15.0606 41.8989,14.3939 43,12.5C 44.1475,13.4581 45.1475,13.1247 46,11.5C 49.1347,12.7994 52.3013,12.7994 55.5,11.5C 59.7071,12.8953 63.5404,14.8953 67,17.5C 67.3333,17.1667 67.6667,16.8333 68,16.5C 69.2225,18.6964 71.0558,20.1964 73.5,21C 73.1667,21.3333 72.8333,21.6667 72.5,22C 73.2529,23.487 74.0862,23.6537 75,22.5C 77.0955,23.7155 76.9288,24.5488 74.5,25C 77.4264,26.5072 79.4264,28.8405 80.5,32C 80.7451,33.9114 80.7451,35.9114 80.5,38C 81.1667,39.3333 82.1667,40.3333 83.5,41C 80.3634,41.6011 77.3634,42.6011 74.5,44C 73.2617,44.69 73.2617,45.19 74.5,45.5 Z"/></g>
<g><path style="opacity:1" fill="#223f4c" d="M 39.5,37.5 C 51.9101,35.736 56.7435,40.736 54,52.5C 50.2193,56.9898 45.386,58.6565 39.5,57.5C 39.5,50.8333 39.5,44.1667 39.5,37.5 Z"/></g>
<g><path style="opacity:1" fill="#002331" d="M 115.5,115.5 C 79.5,115.5 43.5,115.5 7.5,115.5C 7.33349,104.495 7.50015,93.495 8,82.5C 8.34588,84.8477 9.51255,86.6811 11.5,88C 13.8612,89.6686 16.1945,91.3352 18.5,93C 25.8459,97.1723 33.5126,100.672 41.5,103.5C 42.6956,103.154 42.6956,102.654 41.5,102C 44.1667,101.333 46.8333,101.333 49.5,102C 47.7295,102.535 47.3961,103.369 48.5,104.5C 49.5,103.167 50.5,103.167 51.5,104.5C 52.6039,103.369 52.2705,102.535 50.5,102C 53.4852,101.837 56.3186,101.671 59,101.5C 59.5,101.667 60,101.833 60.5,102C 58.7295,102.535 58.3961,103.369 59.5,104.5C 62.25,100.854 65.5834,100.02 69.5,102C 68.6919,102.308 68.0253,102.808 67.5,103.5C 69.4213,104.641 71.4213,104.808 73.5,104C 69.4884,102.197 69.8218,101.197 74.5,101C 73.6919,100.692 73.0253,100.192 72.5,99.5C 75.1432,98.0237 77.3099,96.0237 79,93.5C 79.7175,94.4506 80.5509,94.6172 81.5,94C 86.1197,90.4661 90.9531,87.2995 96,84.5C 96.3176,82.9391 97.1509,81.7724 98.5,81C 98.3974,78.3748 98.0641,75.5414 97.5,72.5C 98.8499,75.106 100.35,75.106 102,72.5C 102.333,72.8333 102.667,73.1667 103,73.5C 102.57,71.873 102.404,70.373 102.5,69C 103.667,68.5 104.5,67.6667 105,66.5C 105.553,63.3205 106.719,60.4872 108.5,58C 108.167,57.6667 107.833,57.3333 107.5,57C 109.663,56.7547 111.33,55.7547 112.5,54C 111.5,53.3333 110.5,53.3333 109.5,54C 110.016,56.0328 109.35,56.0328 107.5,54C 107.996,52.0036 108.996,50.3369 110.5,49C 109.833,48.6667 109.167,48.3333 108.5,48C 109.833,47.6667 111.167,47.3333 112.5,47C 112.07,46.0805 111.736,45.2472 111.5,44.5C 110.808,45.0253 110.308,45.6919 110,46.5C 109.503,43.854 109.336,41.1873 109.5,38.5C 113.172,37.9553 112.838,37.6219 108.5,37.5C 108.178,35.2776 108.845,33.4443 110.5,32C 106.5,31 106.5,30 110.5,29C 109.234,28.6905 108.067,28.1905 107,27.5C 106.548,24.8506 105.714,22.3506 104.5,20C 105.715,17.9045 106.549,18.0712 107,20.5C 107.505,16.8569 106.338,13.8569 103.5,11.5C 104.781,11.1844 106.447,10.8511 108.5,10.5C 109.994,10.7092 111.161,11.3759 112,12.5C 112.333,11.8333 112.667,11.1667 113,10.5C 113.667,13.1667 114.333,13.1667 115,10.5C 115.167,14.6667 115.333,18.8333 115.5,23C 115.464,27.5894 114.798,31.9228 113.5,36C 114.684,37.1803 115.351,38.6803 115.5,40.5C 114.912,43.5037 113.912,46.337 112.5,49C 112.833,49.1667 113.167,49.3333 113.5,49.5C 114.281,48.2713 114.781,46.938 115,45.5C 115.861,48.8871 115.361,52.0538 113.5,55C 113.944,56.7618 114.444,56.5951 115,54.5C 115.987,57.6967 115.487,60.5301 113.5,63C 115.478,80.2625 116.145,97.7625 115.5,115.5 Z"/></g>
<g><path style="opacity:0.784" fill="#41a3bc" d="M -0.5,8.5 C -0.166667,8.5 0.166667,8.5 0.5,8.5C 0.5,46.1667 0.5,83.8333 0.5,121.5C 41.5,121.5 82.5,121.5 123.5,121.5C 123.5,119.833 123.5,118.167 123.5,116.5C 123.833,116.5 124.167,116.5 124.5,116.5C 124.5,118.5 124.5,120.5 124.5,122.5C 82.8627,122.605 41.196,122.605 -0.5,122.5C -0.5,84.5 -0.5,46.5 -0.5,8.5 Z"/></g>
</svg>
