<?xml version="1.0" encoding="UTF-8"?>
<!DOCTYPE svg PUBLIC "-//W3C//DTD SVG 1.1//EN" "http://www.w3.org/Graphics/SVG/1.1/DTD/svg11.dtd">
<svg xmlns="http://www.w3.org/2000/svg" version="1.1" width="125px" height="125px" style="shape-rendering:geometricPrecision; text-rendering:geometricPrecision; image-rendering:optimizeQuality; fill-rule:evenodd; clip-rule:evenodd" xmlns:xlink="http://www.w3.org/1999/xlink">
<g><path style="opacity:0.932" fill="#bde4fa" d="M 55.5,0.5 C 55.5,0.166667 55.5,-0.166667 55.5,-0.5C 59.8333,-0.5 64.1667,-0.5 68.5,-0.5C 70.8333,0.166667 73.1667,0.833333 75.5,1.5C 68.8333,1.16667 62.1667,0.833333 55.5,0.5 Z"/></g>
<g><path style="opacity:1" fill="#6ec8f5" d="M 55.5,0.5 C 62.1667,0.833333 68.8333,1.16667 75.5,1.5C 78.1251,2.44051 78.1251,3.60718 75.5,5C 76.4162,5.37424 77.2496,5.87424 78,6.5C 81.4385,4.19085 84.2718,5.02419 86.5,9C 84.8056,11.37 82.8056,13.5366 80.5,15.5C 82.8073,17.3276 82.474,18.9943 79.5,20.5C 77.8849,19.846 76.2182,19.346 74.5,19C 77.2674,18.3308 77.7674,17.1641 76,15.5C 74.7387,15.7591 73.7387,16.4258 73,17.5C 72.5774,16.0439 71.7441,15.5439 70.5,16C 71.1667,17.3333 72.1667,18.3333 73.5,19C 72.1667,20 72.1667,21 73.5,22C 67.3947,24.248 61.0614,25.0814 54.5,24.5C 51.1276,25.5191 47.7943,25.5191 44.5,24.5C 43.0222,24.762 41.6888,24.4287 40.5,23.5C 41.5063,22.6043 41.5063,21.9377 40.5,21.5C 39.396,23.3885 38.0627,25.0552 36.5,26.5C 33.6795,25.3504 33.3462,24.1838 35.5,23C 34.6919,22.6924 34.0253,22.1924 33.5,21.5C 34.9473,18.5881 37.2807,16.7547 40.5,16C 38.8078,14.5993 38.1412,12.7659 38.5,10.5C 36.857,10.4802 35.5237,11.1468 34.5,12.5C 33.4937,12.0623 33.4937,11.3957 34.5,10.5C 33.6431,9.57481 32.6431,8.90814 31.5,8.5C 34.5464,5.64329 38.2131,3.80996 42.5,3C 46.6879,1.36925 51.0212,0.535921 55.5,0.5 Z"/></g>
<g><path style="opacity:1" fill="#5ec2f4" d="M 31.5,8.5 C 32.6431,8.90814 33.6431,9.57481 34.5,10.5C 33.4937,11.3957 33.4937,12.0623 34.5,12.5C 35.5237,11.1468 36.857,10.4802 38.5,10.5C 38.1412,12.7659 38.8078,14.5993 40.5,16C 37.2807,16.7547 34.9473,18.5881 33.5,21.5C 34.0253,22.1924 34.6919,22.6924 35.5,23C 33.3462,24.1838 33.6795,25.3504 36.5,26.5C 38.0627,25.0552 39.396,23.3885 40.5,21.5C 41.5063,21.9377 41.5063,22.6043 40.5,23.5C 41.6888,24.4287 43.0222,24.762 44.5,24.5C 44.8039,25.1499 45.1373,25.8165 45.5,26.5C 42.9655,29.4851 40.2988,29.8184 37.5,27.5C 35.7749,28.0149 34.1083,28.6816 32.5,29.5C 32.1667,30.8333 31.8333,32.1667 31.5,33.5C 28.8313,32.819 26.1647,33.1523 23.5,34.5C 22.5,32.8333 21.1667,31.5 19.5,30.5C 18.3961,31.6313 18.7295,32.4646 20.5,33C 18.3359,33.9143 16.3359,35.081 14.5,36.5C 13.4968,34.458 12.1634,34.1246 10.5,35.5C 9.94336,33.3541 9.61003,31.3541 9.5,29.5C 13.1824,23.3053 17.8491,17.8053 23.5,13C 25.8171,10.8431 28.4838,9.34314 31.5,8.5 Z"/></g>
<g><path style="opacity:1" fill="#fdfdfe" d="M 54.5,25.5 C 74.4674,22.9795 88.8007,30.6462 97.5,48.5C 99.2523,54.6808 99.9189,61.0141 99.5,67.5C 98.6557,71.2106 97.6557,74.8772 96.5,78.5C 87.6474,94.5951 73.9808,101.762 55.5,100C 30.9276,92.3633 21.0943,75.8633 26,50.5C 27.9249,46.3133 30.0916,42.3133 32.5,38.5C 38.334,31.6735 45.6673,27.3402 54.5,25.5 Z"/></g>
<g><path style="opacity:1" fill="#4bb2e6" d="M 32.5,38.5 C 30.0916,42.3133 27.9249,46.3133 26,50.5C 21.0943,75.8633 30.9276,92.3633 55.5,100C 73.9808,101.762 87.6474,94.5951 96.5,78.5C 97.0431,78.56 97.3764,78.8933 97.5,79.5C 94.2961,84.6604 92.4628,89.9937 92,95.5C 75.8314,114.112 56.6648,117.946 34.5,107C 14.8645,91.625 10.0311,72.4583 20,49.5C 23.131,44.5144 27.131,40.5144 32,37.5C 32.3988,37.7284 32.5654,38.0618 32.5,38.5 Z"/></g>
<g><path style="opacity:0.919" fill="#52bdf3" d="M 44.5,24.5 C 47.7943,25.5191 51.1276,25.5191 54.5,24.5C 54.5,24.8333 54.5,25.1667 54.5,25.5C 45.6673,27.3402 38.334,31.6735 32.5,38.5C 32.5654,38.0618 32.3988,37.7284 32,37.5C 27.131,40.5144 23.131,44.5144 20,49.5C 10.0311,72.4583 14.8645,91.625 34.5,107C 56.6648,117.946 75.8314,114.112 92,95.5C 92.4628,89.9937 94.2961,84.6604 97.5,79.5C 97.3764,78.8933 97.0431,78.56 96.5,78.5C 97.6557,74.8772 98.6557,71.2106 99.5,67.5C 100.434,68.5676 100.768,69.901 100.5,71.5C 101.5,71.5 102.5,71.5 103.5,71.5C 103.629,67.515 105.463,66.1817 109,67.5C 109.684,65.641 110.684,63.9743 112,62.5C 113.796,63.767 115.629,63.767 117.5,62.5C 118.506,62.9377 118.506,63.6043 117.5,64.5C 118.002,65.521 118.668,65.6877 119.5,65C 120.506,62.1526 121.506,59.3193 122.5,56.5C 123.486,60.97 123.819,65.6367 123.5,70.5C 118.01,99.9883 100.677,117.988 71.5,124.5C 65.1667,124.5 58.8333,124.5 52.5,124.5C 23.4226,117.755 5.75592,99.7555 -0.5,70.5C -0.5,65.1667 -0.5,59.8333 -0.5,54.5C 0.882939,45.3987 4.21627,37.0654 9.5,29.5C 9.61003,31.3541 9.94336,33.3541 10.5,35.5C 12.1634,34.1246 13.4968,34.458 14.5,36.5C 16.3359,35.081 18.3359,33.9143 20.5,33C 18.7295,32.4646 18.3961,31.6313 19.5,30.5C 21.1667,31.5 22.5,32.8333 23.5,34.5C 26.1647,33.1523 28.8313,32.819 31.5,33.5C 31.8333,32.1667 32.1667,30.8333 32.5,29.5C 34.1083,28.6816 35.7749,28.0149 37.5,27.5C 40.2988,29.8184 42.9655,29.4851 45.5,26.5C 45.1373,25.8165 44.8039,25.1499 44.5,24.5 Z"/></g>
<g><path style="opacity:1" fill="#81cff6" d="M 75.5,1.5 C 93.1423,5.40254 106.642,15.0692 116,30.5C 119.958,37.8875 122.792,45.5541 124.5,53.5C 124.5,59.1667 124.5,64.8333 124.5,70.5C 124.167,70.5 123.833,70.5 123.5,70.5C 123.819,65.6367 123.486,60.97 122.5,56.5C 120.876,56.3601 119.71,57.0267 119,58.5C 117.623,56.4084 115.79,54.7418 113.5,53.5C 112.833,54.1667 112.167,54.8333 111.5,55.5C 108.944,54.9488 106.611,53.9488 104.5,52.5C 102.602,53.7345 100.935,53.4011 99.5,51.5C 99.7093,50.914 100.043,50.414 100.5,50C 99.3333,49.5 98.5,48.6667 98,47.5C 97.6012,47.7284 97.4346,48.0618 97.5,48.5C 88.8007,30.6462 74.4674,22.9795 54.5,25.5C 54.5,25.1667 54.5,24.8333 54.5,24.5C 61.0614,25.0814 67.3947,24.248 73.5,22C 72.1667,21 72.1667,20 73.5,19C 72.1667,18.3333 71.1667,17.3333 70.5,16C 71.7441,15.5439 72.5774,16.0439 73,17.5C 73.7387,16.4258 74.7387,15.7591 76,15.5C 77.7674,17.1641 77.2674,18.3308 74.5,19C 76.2182,19.346 77.8849,19.846 79.5,20.5C 82.474,18.9943 82.8073,17.3276 80.5,15.5C 82.8056,13.5366 84.8056,11.37 86.5,9C 84.2718,5.02419 81.4385,4.19085 78,6.5C 77.2496,5.87424 76.4162,5.37424 75.5,5C 78.1251,3.60718 78.1251,2.44051 75.5,1.5 Z"/></g>
<g><path style="opacity:1" fill="#6d6d6d" d="M 53.5,55.5 C 52.3052,55.3225 51.1385,54.9891 50,54.5C 48.2998,55.9266 46.4665,56.76 44.5,57C 47.1723,53.1591 50.1723,52.6591 53.5,55.5 Z"/></g>
<g><path style="opacity:1" fill="#f9f9f9" d="M 72.5,69.5 C 72.1667,68.5 71.5,67.8333 70.5,67.5C 68.9993,63.3405 69.3326,59.3405 71.5,55.5C 77.081,54.0636 79.7476,56.3969 79.5,62.5C 79.4914,67.1753 77.1581,69.5086 72.5,69.5 Z"/></g>
<g><path style="opacity:1" fill="#6cc7f5" d="M 122.5,56.5 C 121.506,59.3193 120.506,62.1526 119.5,65C 118.668,65.6877 118.002,65.521 117.5,64.5C 118.506,63.6043 118.506,62.9377 117.5,62.5C 115.629,63.767 113.796,63.767 112,62.5C 110.684,63.9743 109.684,65.641 109,67.5C 105.463,66.1817 103.629,67.515 103.5,71.5C 102.5,71.5 101.5,71.5 100.5,71.5C 100.768,69.901 100.434,68.5676 99.5,67.5C 99.9189,61.0141 99.2523,54.6808 97.5,48.5C 97.4346,48.0618 97.6012,47.7284 98,47.5C 98.5,48.6667 99.3333,49.5 100.5,50C 100.043,50.414 99.7093,50.914 99.5,51.5C 100.935,53.4011 102.602,53.7345 104.5,52.5C 106.611,53.9488 108.944,54.9488 111.5,55.5C 112.167,54.8333 112.833,54.1667 113.5,53.5C 115.79,54.7418 117.623,56.4084 119,58.5C 119.71,57.0267 120.876,56.3601 122.5,56.5 Z"/></g>
<g><path style="opacity:1" fill="#808080" d="M 53.5,55.5 C 56.0379,57.3224 56.0379,59.3224 53.5,61.5C 56.1003,64.2937 56.1003,67.127 53.5,70C 51.2884,70.7891 49.2884,70.6225 47.5,69.5C 52.6752,70.4929 54.5086,68.4929 53,63.5C 47,62.1667 47,60.8333 53,59.5C 53.49,58.2068 53.6567,56.8734 53.5,55.5 Z"/></g>
<g><path style="opacity:1" fill="#f7f7f7" d="M 64.5,60.5 C 66.5516,62.9758 66.8849,65.6424 65.5,68.5C 63.1667,69.8333 60.8333,69.8333 58.5,68.5C 56.633,62.8946 58.633,60.2279 64.5,60.5 Z"/></g>
<g><path style="opacity:1" fill="#747474" d="M 71.5,55.5 C 69.3326,59.3405 68.9993,63.3405 70.5,67.5C 69.8826,67.3893 69.3826,67.056 69,66.5C 68.3333,63.5 68.3333,60.5 69,57.5C 69.7083,56.6195 70.5416,55.9528 71.5,55.5 Z"/></g>
<g><path style="opacity:1" fill="#777777" d="M 72.5,69.5 C 77.1581,69.5086 79.4914,67.1753 79.5,62.5C 79.7476,56.3969 77.081,54.0636 71.5,55.5C 74.5102,52.7244 77.3435,53.0577 80,56.5C 82.3752,61.6226 81.5418,66.1226 77.5,70C 75.6131,70.7796 73.9464,70.6129 72.5,69.5 Z"/></g>
<g><path style="opacity:1" fill="#6c6c6c" d="M 64.5,60.5 C 58.633,60.2279 56.633,62.8946 58.5,68.5C 57.8826,68.3893 57.3826,68.056 57,67.5C 56.3333,65.5 56.3333,63.5 57,61.5C 58.5862,59.3295 59.9196,56.9962 61,54.5C 61.6543,53.3044 62.1543,53.3044 62.5,54.5C 61.8333,55.8333 61.1667,57.1667 60.5,58.5C 61.9492,59.1719 63.2825,59.8386 64.5,60.5 Z"/></g>
<g><path style="opacity:1" fill="#616161" d="M 47.5,69.5 C 46.0779,69.2504 45.0779,68.417 44.5,67C 46.1541,66.8039 47.1541,67.6372 47.5,69.5 Z"/></g>
<g><path style="opacity:1" fill="#717171" d="M 64.5,60.5 C 66.5864,61.1485 67.5864,62.6485 67.5,65C 67.6134,66.6991 66.9468,67.8658 65.5,68.5C 66.8849,65.6424 66.5516,62.9758 64.5,60.5 Z"/></g>
<g><path style="opacity:1" fill="#666666" d="M 70.5,67.5 C 71.5,67.8333 72.1667,68.5 72.5,69.5C 71.1667,69.5 70.5,68.8333 70.5,67.5 Z"/></g>
<g><path style="opacity:1" fill="#707070" d="M 58.5,68.5 C 60.8333,69.8333 63.1667,69.8333 65.5,68.5C 64.8658,69.9468 63.6991,70.6134 62,70.5C 60.3009,70.6134 59.1342,69.9468 58.5,68.5 Z"/></g>
</svg>
