<?xml version="1.0" encoding="UTF-8"?>
<!DOCTYPE svg PUBLIC "-//W3C//DTD SVG 1.1//EN" "http://www.w3.org/Graphics/SVG/1.1/DTD/svg11.dtd">
<svg xmlns="http://www.w3.org/2000/svg" version="1.1" width="125px" height="125px" style="shape-rendering:geometricPrecision; text-rendering:geometricPrecision; image-rendering:optimizeQuality; fill-rule:evenodd; clip-rule:evenodd" xmlns:xlink="http://www.w3.org/1999/xlink">
<g><path style="opacity:0.993" fill="#05adf2" d="M 25.5,-0.5 C 31.1667,-0.5 36.8333,-0.5 42.5,-0.5C 46.1489,0.950139 49.8155,2.61681 53.5,4.5C 84.1382,1.31513 105.972,13.6485 119,41.5C 123.147,52.4728 123.98,63.6395 121.5,75C 122.412,77.3172 123.412,79.4839 124.5,81.5C 124.5,87.5 124.5,93.5 124.5,99.5C 119.833,111.5 111.5,119.833 99.5,124.5C 93.1667,124.5 86.8333,124.5 80.5,124.5C 78.9812,123.59 77.3146,122.757 75.5,122C 41.2234,125.293 17.7234,111.127 5,79.5C 2.50733,70.604 2.00733,61.604 3.5,52.5C 2.39476,48.6475 1.06143,44.9808 -0.5,41.5C -0.5,36.1667 -0.5,30.8333 -0.5,25.5C 3.80728,12.526 12.4739,3.85937 25.5,-0.5 Z"/></g>
<g><path style="opacity:1" fill="#fbfdfe" d="M 51.5,21.5 C 64.477,19.6383 76.477,22.1383 87.5,29C 93.5602,33.6076 95.0602,39.4409 92,46.5C 84.0836,51.3894 78.4169,49.3894 75,40.5C 73.1266,38.2911 70.96,36.4578 68.5,35C 63.8333,34.3333 59.1667,34.3333 54.5,35C 48.9461,36.5295 46.7794,40.0295 48,45.5C 49.7309,47.6166 51.8976,49.1166 54.5,50C 66.8077,51.661 78.4744,55.3276 89.5,61C 98.8162,70.1224 99.9829,80.2891 93,91.5C 81.7822,101.568 68.6155,105.401 53.5,103C 42.3461,101.188 34.1794,95.3543 29,85.5C 26.3312,74.6705 30.4978,70.6705 41.5,73.5C 44.3075,79.9496 48.6409,85.1163 54.5,89C 59.5,89.6667 64.5,89.6667 69.5,89C 78.6259,86.1099 80.6259,80.7766 75.5,73C 65.7206,69.3744 55.7206,66.3744 45.5,64C 30.5366,58.4383 26.0366,48.2716 32,33.5C 37.2533,27.2985 43.7533,23.2985 51.5,21.5 Z"/></g>
</svg>
