<?xml version="1.0" encoding="UTF-8"?>
<!DOCTYPE svg PUBLIC "-//W3C//DTD SVG 1.1//EN" "http://www.w3.org/Graphics/SVG/1.1/DTD/svg11.dtd">
<svg xmlns="http://www.w3.org/2000/svg" version="1.1" width="125px" height="125px" style="shape-rendering:geometricPrecision; text-rendering:geometricPrecision; image-rendering:optimizeQuality; fill-rule:evenodd; clip-rule:evenodd" xmlns:xlink="http://www.w3.org/1999/xlink">
<g><path style="opacity:0.993" fill="#fefefe" d="M 13.5,-0.5 C 45.8333,-0.5 78.1667,-0.5 110.5,-0.5C 116.448,2.44812 121.115,6.78146 124.5,12.5C 124.5,45.5 124.5,78.5 124.5,111.5C 121.115,117.219 116.448,121.552 110.5,124.5C 78.1667,124.5 45.8333,124.5 13.5,124.5C 7.55171,121.552 2.88504,117.219 -0.5,111.5C -0.5,78.5 -0.5,45.5 -0.5,12.5C 2.88504,6.78146 7.55171,2.44812 13.5,-0.5 Z"/></g>
<g><path style="opacity:1" fill="#7c598c" d="M 30.5,18.5 C 40.9869,17.5056 51.6536,17.1722 62.5,17.5C 62.8064,20.3854 62.4731,23.0521 61.5,25.5C 61.5,23.1667 61.5,20.8333 61.5,18.5C 51.1667,18.5 40.8333,18.5 30.5,18.5 Z"/></g>
<g><path style="opacity:1" fill="#3a0c53" d="M 30.5,18.5 C 40.8333,18.5 51.1667,18.5 61.5,18.5C 61.5,20.8333 61.5,23.1667 61.5,25.5C 58.5701,26.299 55.5701,26.6323 52.5,26.5C 52.5,49.8333 52.5,73.1667 52.5,96.5C 62.8333,96.5 73.1667,96.5 83.5,96.5C 84.0508,93.1933 84.3841,89.8599 84.5,86.5C 84.5,86.1667 84.5,85.8333 84.5,85.5C 96.314,85.264 108.314,85.264 120.5,85.5C 111.682,86.4933 102.682,86.8266 93.5,86.5C 93.5,93.1667 93.5,99.8333 93.5,106.5C 72.5,106.5 51.5,106.5 30.5,106.5C 30.5,103.833 30.5,101.167 30.5,98.5C 32.8056,98.0074 35.139,97.6741 37.5,97.5C 38.5,97.5 39.5,97.5 40.5,97.5C 40.8309,73.994 40.4975,50.6607 39.5,27.5C 36.7131,26.5233 33.7131,26.19 30.5,26.5C 30.5,23.8333 30.5,21.1667 30.5,18.5 Z"/></g>
<g><path style="opacity:1" fill="#bdafc3" d="M 39.5,27.5 C 40.4975,50.6607 40.8309,73.994 40.5,97.5C 39.5,97.5 38.5,97.5 37.5,97.5C 39.474,74.3962 40.1406,51.0629 39.5,27.5 Z"/></g>
<g><path style="opacity:1" fill="#360450" d="M 83.5,41.5 C 86.8333,41.5 90.1667,41.5 93.5,41.5C 93.6665,51.8387 93.4998,62.172 93,72.5C 91.9848,75.2101 90.4848,77.5434 88.5,79.5C 87,77.1667 85.5,74.8333 84,72.5C 83.5002,62.172 83.3335,51.8387 83.5,41.5 Z"/></g>
<g><path style="opacity:1" fill="#474747" d="M 98.5,70.5 C 105.803,70.6023 107.803,73.769 104.5,80C 100.167,80.6667 95.8333,80.6667 91.5,80C 94.8761,80.1837 97.5427,79.017 99.5,76.5C 100.478,76.9767 101.311,77.6433 102,78.5C 102.271,76.193 101.105,75.0264 98.5,75C 101.838,73.7936 103.671,74.9603 104,78.5C 105.365,77.4071 105.699,76.0738 105,74.5C 102.575,73.3574 100.408,72.024 98.5,70.5 Z"/></g>
<g><path style="opacity:1" fill="#424242" d="M 74.5,70.5 C 75.9778,70.238 77.3112,70.5713 78.5,71.5C 73.428,71.3976 71.5946,73.7309 73,78.5C 73.3287,74.9603 75.162,73.7936 78.5,75C 77.2341,75.3095 76.0674,75.8095 75,76.5C 75.2569,78.9746 76.2569,78.9746 78,76.5C 78.6172,77.4491 78.4506,78.2825 77.5,79C 80.1667,79.3333 82.8333,79.6667 85.5,80C 81.1667,80.6667 76.8333,80.6667 72.5,80C 69.5227,76.0526 70.1894,72.8859 74.5,70.5 Z"/></g>
<g><path style="opacity:1" fill="#785489" d="M 120.5,83.5 C 99.4894,83.167 78.4894,83.5003 57.5,84.5C 66.4754,85.4982 75.4754,85.8315 84.5,85.5C 84.5,85.8333 84.5,86.1667 84.5,86.5C 75.1667,86.5 65.8333,86.5 56.5,86.5C 56.5,85.1667 56.5,83.8333 56.5,82.5C 78.0065,82.1694 99.3399,82.5027 120.5,83.5 Z"/></g>
<g><path style="opacity:1" fill="#1d003a" d="M 120.5,83.5 C 120.5,84.1667 120.5,84.8333 120.5,85.5C 108.314,85.264 96.314,85.264 84.5,85.5C 75.4754,85.8315 66.4754,85.4982 57.5,84.5C 78.4894,83.5003 99.4894,83.167 120.5,83.5 Z"/></g>
</svg>
